<?xml version="1.0" standalone="no"?>
<!DOCTYPE svg PUBLIC "-//W3C//DTD SVG 20010904//EN"
 "http://www.w3.org/TR/2001/REC-SVG-20010904/DTD/svg10.dtd">
<svg version="1.0" xmlns="http://www.w3.org/2000/svg"
 width="64.000000pt" height="64.000000pt" viewBox="-8 -8 80.000000 80.000000"
 preserveAspectRatio="xMidYMid meet">

<g transform="translate(0.000000,64.000000) scale(0.100000,-0.100000)"
fill="#000000" stroke="none">
<path d="M62 587 c-32 -34 -38 -80 -17 -126 13 -30 14 -43 6 -59 -21 -39 -24
-126 -7 -184 64 -220 413 -255 532 -53 34 58 42 149 20 219 -13 43 -13 52 0
77 21 42 17 83 -12 118 -30 37 -46 38 -86 10 -29 -21 -30 -21 -71 -3 -58 26
-159 26 -213 -2 l-41 -20 -27 23 c-34 29 -57 29 -84 0z m73 -17 c17 -19 17
-21 -21 -62 -47 -53 -50 -54 -58 -26 -10 38 -7 54 15 82 24 31 40 33 64 6z
m280 -4 c128 -59 201 -212 164 -343 -19 -69 -89 -137 -165 -159 -73 -21 -163
-15 -224 16 -97 48 -134 109 -134 215 0 119 63 221 169 271 64 31 125 31 190
0z m154 -2 c12 -15 21 -38 21 -53 0 -33 -16 -60 -27 -46 -4 6 -24 27 -43 48
l-35 38 24 20 c30 25 36 24 60 -7z"/>
<path d="M320 550 c0 -11 5 -20 10 -20 6 0 10 9 10 20 0 11 -4 20 -10 20 -5 0
-10 -9 -10 -20z"/>
<path d="M266 546 c3 -9 11 -16 16 -16 13 0 5 23 -10 28 -7 2 -10 -2 -6 -12z"/>
<path d="M212 529 c2 -7 10 -15 17 -17 8 -3 12 1 9 9 -2 7 -10 15 -17 17 -8 3
-12 -1 -9 -9z"/>
<path d="M170 495 c7 -8 16 -15 21 -15 5 0 6 7 3 15 -4 8 -13 15 -21 15 -13 0
-13 -3 -3 -15z"/>
<path d="M193 444 c-10 -14 -33 -43 -50 -64 -38 -43 -41 -60 -15 -83 20 -18
72 -23 72 -7 0 6 -11 10 -24 10 -13 0 -29 7 -36 15 -10 12 -7 22 21 54 19 22
41 49 50 62 11 16 21 20 34 16 15 -6 17 -15 12 -52 -7 -46 6 -63 17 -22 9 36
7 72 -6 85 -20 20 -56 14 -75 -14z"/>
<path d="M376 454 c-28 -28 -15 -97 26 -141 30 -32 83 -40 108 -18 28 25 25
42 -12 85 -18 21 -41 50 -51 64 -20 29 -48 33 -71 10z m50 -12 c6 -4 19 -21
28 -39 9 -18 25 -37 36 -43 29 -16 26 -48 -6 -56 -35 -9 -75 22 -93 73 -20 57
-2 90 35 65z"/>
<path d="M404 399 c-10 -17 13 -36 27 -22 12 12 4 33 -11 33 -5 0 -12 -5 -16
-11z"/>
<path d="M204 399 c-10 -17 13 -36 27 -22 12 12 4 33 -11 33 -5 0 -12 -5 -16
-11z"/>
<path d="M227 333 c-4 -3 -7 -13 -7 -21 0 -12 3 -12 15 -2 8 7 15 16 15 21 0
11 -14 12 -23 2z"/>
<path d="M252 278 c-21 -21 -13 -38 23 -54 23 -9 35 -21 35 -33 0 -24 -26 -51
-49 -51 -20 0 -51 30 -51 48 0 7 -4 12 -10 12 -18 0 -10 -31 15 -55 28 -29 51
-31 83 -9 20 14 24 14 44 0 12 -9 32 -16 43 -16 25 0 65 39 65 63 0 26 -17 20
-24 -8 -8 -33 -50 -44 -76 -20 -30 27 -24 49 16 68 27 13 35 22 32 40 -3 20
-9 22 -68 25 -42 2 -70 -2 -78 -10z m128 -18 c0 -31 -107 -33 -118 -2 -3 9 13
12 57 12 35 0 61 -4 61 -10z"/>
</g>
</svg>
