<?xml version="1.0" standalone="no"?>
<!DOCTYPE svg PUBLIC "-//W3C//DTD SVG 20010904//EN"
 "http://www.w3.org/TR/2001/REC-SVG-20010904/DTD/svg10.dtd">
<svg version="1.0" xmlns="http://www.w3.org/2000/svg"
 width="24.000000pt" height="24.000000pt" viewBox="0 0 24.000000 24.000000"
 preserveAspectRatio="xMidYMid meet">

<g transform="translate(0.000000,24.000000) scale(0.100000,-0.100000)"
fill="#000000" stroke="none">
<path d="M41 211 c-6 -4 -14 -33 -17 -64 -4 -48 -1 -59 21 -85 32 -39 74 -48
114 -27 47 24 62 53 56 115 -4 57 -18 74 -46 59 -10 -5 -32 -9 -49 -9 -17 0
-39 4 -49 9 -9 5 -23 6 -30 2z m138 -57 c29 -37 26 -58 -10 -88 -38 -33 -60
-33 -98 0 -36 30 -39 51 -10 88 16 20 29 26 59 26 30 0 43 -6 59 -26z"/>
<path d="M70 120 c-9 -16 -8 -22 5 -26 21 -8 39 10 32 30 -9 22 -24 20 -37 -4z"/>
<path d="M136 131 c-3 -5 0 -12 6 -14 10 -4 10 -6 0 -6 -18 -1 -4 -21 14 -21
10 0 14 8 12 22 -3 23 -23 35 -32 19z"/>
<path d="M108 68 c9 -9 15 -9 24 0 9 9 7 12 -12 12 -19 0 -21 -3 -12 -12z"/>
</g>
</svg>
