<?xml version="1.0" standalone="no"?>
<!DOCTYPE svg PUBLIC "-//W3C//DTD SVG 20010904//EN"
 "http://www.w3.org/TR/2001/REC-SVG-20010904/DTD/svg10.dtd">
<svg version="1.0" xmlns="http://www.w3.org/2000/svg"
 width="104.000000pt" height="43.000000pt" viewBox="0 -70 104.000000 64.000000"
 preserveAspectRatio="xMidYMid meet">

<g fill="#000000" stroke="none">
<path id="colorful" d="M 6.2 -65.1 c -3.2 3.4 -3.8 8 -1.7 12.6 c 1.3 3 1.4 4.3 0.6 5.9 c -2.1 3.9 -2.4 12.6 -0.7 18.4 c 6.4 22 41.3 25.5 53.2 5.3 c 3.4 -5.8 4.2 -14.9 2 -21.9 c -1.3 -4.3 -1.3 -5.2 0 -7.7 c 2.1 -4.2 1.7 -8.3 -1.2 -11.8 c -3 -3.7 -4.6 -3.8 -8.6 -1 c -2.9 2.1 -3 2.1 -7.1 0.3 c -5.8 -2.6 -15.9 -2.6 -21.3 0.2 l -4.1 2 l -2.7 -2.3 c -3.4 -2.9 -5.7 -2.9 -8.4 0 z m 7.3 1.7 c 1.7 1.9 1.7 2.1 -2.1 6.2 c -4.7 5.3 -5 5.4 -5.8 2.6 c -1 -3.8 -0.7 -5.4 1.5 -8.2 c 2.4 -3.1 4 -3.3 6.4 -0.6 z m 28 0.4 c 12.8 5.9 20.1 21.2 16.4 34.3 c -1.9 6.9 -8.9 13.7 -16.5 15.9 c -7.3 2.1 -16.3 1.5 -22.4 -1.6 c -9.7 -4.8 -13.4 -10.9 -13.4 -21.5 c 0 -11.9 6.3 -22.1 16.9 -27.1 c 6.4 -3.1 12.5 -3.1 19 0 z m 15.4 0.2 c 1.2 1.5 2.1 3.8 2.1 5.3 c 0 3.3 -1.6 6 -2.7 4.6 c -0.4 -0.6 -2.4 -2.7 -4.3 -4.8 l -3.5 -3.8 l 2.4 -2 c 3 -2.5 3.6 -2.4 6 0.7 z"/>
<path d="M 32 -61.4 c 0 1.1 0.5 2 1 2 c 0.6 0 1 -0.9 1 -2 c 0 -1.1 -0.4 -2 -1 -2 c -0.5 0 -1 0.9 -1 2 z"/>
<path d="M 26.6 -61 c 0.3 0.9 1.1 1.6 1.6 1.6 c 1.3 0 0.5 -2.3 -1 -2.8 c -0.7 -0.2 -1 0.2 -0.6 1.2 z"/>
<path d="M 21.2 -59.3 c 0.2 0.7 1 1.5 1.7 1.7 c 0.8 0.3 1.2 -0.1 0.9 -0.9 c -0.2 -0.7 -1 -1.5 -1.7 -1.7 c -0.8 -0.3 -1.2 0.1 -0.9 0.9 z"/>
<path d="M 17 -55.9 c 0.7 0.8 1.6 1.5 2.1 1.5 c 0.5 0 0.6 -0.7 0.3 -1.5 c -0.4 -0.8 -1.3 -1.5 -2.1 -1.5 c -1.3 0 -1.3 0.3 -0.3 1.5 z"/>
<path d="M 19.3 -50.8 c -1 1.4 -3.3 4.3 -5 6.4 c -3.8 4.3 -4.1 6 -1.5 8.3 c 2 1.8 7.2 2.3 7.2 0.7 c 0 -0.6 -1.1 -1 -2.4 -1 c -1.3 0 -2.9 -0.7 -3.6 -1.5 c -1 -1.2 -0.7 -2.2 2.1 -5.4 c 1.9 -2.2 4.1 -4.9 5 -6.2 c 1.1 -1.6 2.1 -2 3.4 -1.6 c 1.5 0.6 1.7 1.5 1.2 5.2 c -0.7 4.6 0.6 6.3 1.7 2.2 c 0.9 -3.6 0.7 -7.2 -0.6 -8.5 c -2 -2 -5.6 -1.4 -7.5 1.4 z"/>
<path d="M 37.6 -51.8 c -2.8 2.8 -1.5 9.7 2.6 14.1 c 3 3.2 8.3 4 10.8 1.8 c 2.8 -2.5 2.5 -4.2 -1.2 -8.5 c -1.8 -2.1 -4.1 -5 -5.1 -6.4 c -2 -2.9 -4.8 -3.3 -7.1 -1 z m 5 1.2 c 0.6 0.4 1.9 2.1 2.8 3.9 c 0.9 1.8 2.5 3.7 3.6 4.3 c 2.9 1.6 2.6 4.8 -0.6 5.6 c -3.5 0.9 -7.5 -2.2 -9.3 -7.3 c -2 -5.7 -0.2 -9 3.5 -6.5 z"/>
<path d="M 40.4 -46.3 c -1 1.7 1.3 3.6 2.7 2.2 c 1.2 -1.2 0.4 -3.3 -1.1 -3.3 c -0.5 0 -1.2 0.5 -1.6 1.1 z"/>
<path d="M 20.4 -46.3 c -1 1.7 1.3 3.6 2.7 2.2 c 1.2 -1.2 0.4 -3.3 -1.1 -3.3 c -0.5 0 -1.2 0.5 -1.6 1.1 z"/>
<path d="M 22.7 -39.7 c -0.4 0.3 -0.7 1.3 -0.7 2.1 c 0 1.2 0.3 1.2 1.5 0.2 c 0.8 -0.7 1.5 -1.6 1.5 -2.1 c 0 -1.1 -1.4 -1.2 -2.3 -0.2 z"/>
<path d="M 25.2 -34.2 c -2.1 2.1 -1.3 3.8 2.3 5.4 c 2.3 0.9 3.5 2.1 3.5 3.3 c 0 2.4 -2.6 5.1 -4.9 5.1 c -2 0 -5.1 -3 -5.1 -4.8 c 0 -0.7 -0.4 -1.2 -1 -1.2 c -1.8 0 -1 3.1 1.5 5.5 c 2.8 2.9 5.1 3.1 8.3 0.9 c 2 -1.4 2.4 -1.4 4.4 0 c 1.2 0.9 3.2 1.6 4.3 1.6 c 2.5 0 6.5 -3.9 6.5 -6.3 c 0 -2.6 -1.7 -2 -2.4 0.8 c -0.8 3.3 -5 4.4 -7.6 2 c -3 -2.7 -2.4 -4.9 1.6 -6.8 c 2.7 -1.3 3.5 -2.2 3.2 -4 c -0.3 -2 -0.9 -2.2 -6.8 -2.5 c -4.2 -0.2 -7 0.2 -7.8 1 z m 12.8 1.8 c 0 3.1 -10.7 3.3 -11.8 0.2 c -0.3 -0.9 1.3 -1.2 5.7 -1.2 c 3.5 0 6.1 0.4 6.1 1 z"/>
<path d="M 80.6487 -21.4152 L 80.6487 -37.8617 L 64.2351 -37.8617 L 64.2351 -40.5643 L 80.6487 -40.5643 L 80.6487 -56.9449 L 83.2854 -56.9449 L 83.2854 -40.5643 L 99.7649 -40.5643 L 99.7649 -37.8617 L 83.2854 -37.8617 L 83.2854 -21.4152 L 80.6487 -21.4152 z" />
</g>
</svg>
