<?xml version="1.0" standalone="no"?>
<!DOCTYPE svg PUBLIC "-//W3C//DTD SVG 20010904//EN"
 "http://www.w3.org/TR/2001/REC-SVG-20010904/DTD/svg10.dtd">
<svg version="1.0" xmlns="http://www.w3.org/2000/svg"
 width="80.000000pt" height="80.000000pt" viewBox="0 0 80.000000 80.000000"
 preserveAspectRatio="xMidYMid meet">

<g transform="translate(0.000000,80.000000) scale(0.100000,-0.100000)"
fill="#000000" stroke="none">
<path d="M161 676 c-26 -15 -50 -51 -51 -79 0 -10 11 -29 24 -42 l24 -24 -19
-39 c-11 -21 -22 -62 -26 -89 -11 -94 30 -163 126 -214 31 -16 69 -39 84 -52
44 -34 114 -31 163 9 22 17 59 40 84 51 114 50 152 173 91 295 l-19 39 24 24
c39 39 25 94 -33 124 -33 17 -52 13 -78 -15 -21 -23 -28 -25 -57 -16 -66 21
-113 23 -172 7 l-58 -15 -24 25 c-26 28 -47 31 -83 11z m68 -25 c10 -10 20
-24 22 -30 3 -9 15 -7 44 5 52 22 158 22 209 0 22 -9 40 -15 41 -14 22 41 39
58 56 58 26 0 69 -43 69 -69 0 -16 -28 -43 -57 -56 -1 0 11 -27 27 -59 44 -87
39 -168 -13 -225 -12 -12 -47 -36 -77 -52 -30 -17 -70 -41 -89 -54 -47 -35
-79 -31 -147 15 -33 22 -65 40 -71 40 -23 0 -92 71 -104 107 -21 65 7 178 57
227 9 10 13 20 10 24 -4 3 -11 0 -16 -7 -7 -12 -12 -12 -34 3 -33 21 -33 50
-1 81 29 30 49 31 74 6z"/>
<path d="M220 590 c0 -5 5 -10 10 -10 6 0 10 5 10 10 0 6 -4 10 -10 10 -5 0
-10 -4 -10 -10z"/>
<path d="M555 590 c3 -5 8 -10 11 -10 2 0 4 5 4 10 0 6 -5 10 -11 10 -5 0 -7
-4 -4 -10z"/>
<path d="M585 570 c-3 -5 -1 -10 4 -10 6 0 11 5 11 10 0 6 -2 10 -4 10 -3 0
-8 -4 -11 -10z"/>
<path d="M259 431 c-35 -35 -39 -81 -9 -111 29 -29 66 -25 101 9 35 35 39 81
9 111 -29 29 -66 25 -101 -9z m95 -13 c25 -41 -41 -117 -81 -92 -10 6 -19 25
-21 41 -6 55 74 95 102 51z"/>
<path d="M314 409 c-10 -17 13 -36 27 -22 12 12 4 33 -11 33 -5 0 -12 -5 -16
-11z"/>
<path d="M440 440 c-30 -30 -26 -76 9 -111 35 -34 72 -38 101 -9 30 30 26 76
-9 111 -35 34 -72 38 -101 9z m85 -25 c39 -38 29 -95 -17 -95 -26 0 -68 45
-68 73 0 50 46 62 85 22z"/>
<path d="M454 409 c-10 -17 13 -36 27 -22 12 12 4 33 -11 33 -5 0 -12 -5 -16
-11z"/>
<path d="M350 252 c0 -14 35 -42 52 -42 15 0 48 30 48 43 0 4 -22 7 -50 7 -27
0 -50 -4 -50 -8z"/>
</g>
</svg>
